<?xml version="1.0" encoding="UTF-8" standalone="no"?>
<!DOCTYPE svg PUBLIC "-//W3C//DTD SVG 1.1//EN" "http://www.w3.org/Graphics/SVG/1.1/DTD/svg11.dtd">
<svg width="100%" height="100%" viewBox="0 0 300 300" version="1.1" xmlns="http://www.w3.org/2000/svg" xmlns:xlink="http://www.w3.org/1999/xlink" xml:space="preserve" style="fill-rule:evenodd;clip-rule:evenodd;stroke-linejoin:round;stroke-miterlimit:1.41421;">
    <g id="Logo" transform="matrix(1.02125,0,0,1.02125,-5.01411,-3.18697)">
        <g transform="matrix(1,0,0,1,-5.26945,0.17217)">
            <path d="M66.931,206.328L66.821,206.308C64.016,205.78 61.334,204.69 58.931,203.153C58.334,202.771 57.754,202.363 57.193,201.93C56.737,201.579 56.294,201.213 55.862,200.832C52.435,197.806 49.84,193.94 47.86,189.844C47.297,188.677 46.781,187.488 46.307,186.282C45.976,185.442 45.669,184.592 45.368,183.741C45.012,182.73 44.668,181.714 44.339,180.694C43.691,178.691 43.095,176.672 42.551,174.638C41.287,169.917 40.298,165.122 39.588,160.286C38.97,156.071 38.562,151.824 38.382,147.567C38.238,144.149 38.239,140.724 38.412,137.307C38.56,134.396 38.83,131.489 39.268,128.606C39.606,126.374 40.043,124.152 40.634,121.972C41.096,120.264 41.651,118.574 42.373,116.958C42.907,115.762 43.536,114.597 44.327,113.551C44.561,113.241 44.809,112.943 45.073,112.66C45.211,112.512 45.353,112.366 45.505,112.233C45.659,112.099 45.823,111.977 45.995,111.867C46.201,111.737 46.42,111.628 46.635,111.517C46.897,111.382 47.162,111.252 47.428,111.126C48.773,110.492 50.169,109.969 51.588,109.53C54.204,108.722 56.902,108.195 59.614,107.833C63.21,107.353 66.838,107.171 70.463,107.13C71.039,107.126 71.614,107.124 72.19,107.126C72.613,107.128 73.035,107.132 73.457,107.137L73.874,107.143C74.131,107.147 74.404,107.145 74.661,107.174C74.782,107.188 74.902,107.207 75.021,107.231L74.375,115.142C74.31,115.144 74.237,115.145 74.145,115.148C73.616,115.139 73.088,115.133 72.559,115.128C69.956,115.114 67.352,115.167 64.755,115.352C62.99,115.478 61.229,115.662 59.48,115.935C58.028,116.161 56.583,116.448 55.162,116.826C53.632,117.233 52.131,117.747 50.701,118.429L50.651,118.453C50.451,118.729 50.277,119.024 50.115,119.324C49.899,119.727 49.706,120.143 49.528,120.565C49.074,121.644 48.713,122.763 48.402,123.892C47.926,125.619 47.568,127.377 47.281,129.144C46.948,131.198 46.714,133.268 46.553,135.342C46.325,138.295 46.246,141.258 46.289,144.219C46.339,147.653 46.554,151.084 46.918,154.499C47.364,158.689 48.036,162.855 48.926,166.974C49.932,171.63 51.218,176.226 52.788,180.724C53.164,181.802 53.552,182.877 53.984,183.934C54.355,184.841 54.754,185.737 55.187,186.616C55.502,187.257 55.835,187.889 56.188,188.509C56.474,189.012 56.772,189.506 57.085,189.992C58.752,192.58 60.856,194.956 63.499,196.575C63.872,196.803 64.255,197.016 64.646,197.211C65.171,197.473 65.712,197.703 66.265,197.898C66.699,198.051 67.14,198.182 67.587,198.29L66.931,206.328Z" style="fill:rgb(248,93,93);"/>
        </g>
        <g transform="matrix(1,0,0,1,-5.26945,0.17217)">
            <path d="M83.364,103.357C84.181,103.636 85.01,103.881 85.848,104.091C87.622,104.536 89.435,104.825 91.26,104.957L78.328,263.359C78.26,263.816 78.265,263.938 78.109,264.376C77.933,264.868 77.661,265.324 77.312,265.712C77.195,265.841 77.062,265.954 76.938,266.075L76.935,266.077C77.993,266.371 79.061,266.627 80.134,266.86C81.282,267.111 82.435,267.335 83.592,267.544C86.162,268.008 88.747,268.392 91.336,268.735C94.437,269.146 97.547,269.495 100.661,269.804C104.545,270.19 108.435,270.513 112.328,270.794C121.431,271.45 130.551,271.876 139.673,272.153C150.07,272.468 160.473,272.585 170.874,272.528C180.225,272.478 189.576,272.285 198.92,271.92C207.053,271.602 215.182,271.157 223.296,270.509C226.49,270.255 229.682,269.967 232.869,269.635C235.899,269.32 238.926,268.964 241.944,268.544C244.44,268.197 246.93,267.804 249.407,267.335C251.415,266.955 253.416,266.518 255.38,265.952L255.199,265.746C254.923,265.324 254.828,265.229 254.646,264.754C254.464,264.28 254.47,264.145 254.394,263.647L247.687,181.495C248.513,181.047 249.308,180.538 250.061,179.973C250.309,179.787 250.551,179.593 250.791,179.396C251.063,179.173 251.332,178.947 251.593,178.711C252.1,178.253 252.584,177.768 253.043,177.261C253.52,176.734 253.97,176.183 254.394,175.612C254.654,175.261 254.904,174.903 255.145,174.538L262.171,260.594C262.301,260.66 262.428,260.729 262.556,260.799C262.673,260.865 262.79,260.932 262.906,261C263.727,261.497 264.497,262.086 265.105,262.835C265.571,263.409 265.934,264.067 266.146,264.776C266.303,265.304 266.376,265.856 266.36,266.407C266.348,266.805 266.289,267.201 266.186,267.586C266.102,267.901 265.988,268.208 265.848,268.502C265.739,268.733 265.612,268.956 265.472,269.17C264.655,270.42 263.397,271.296 262.082,271.96C261.855,272.074 261.625,272.183 261.393,272.288C261.094,272.422 260.791,272.548 260.485,272.669C260.101,272.82 259.712,272.962 259.321,273.096C258.76,273.288 258.194,273.465 257.625,273.63C256.42,273.981 255.201,274.284 253.977,274.559C252.955,274.789 251.929,275 250.901,275.195C248.294,275.688 245.674,276.103 243.047,276.468C239.938,276.901 236.82,277.267 233.698,277.592C230.134,277.964 226.564,278.28 222.992,278.558C218.328,278.921 213.659,279.218 208.988,279.466C203.858,279.738 198.724,279.951 193.59,280.114C182.304,280.472 171.012,280.597 159.721,280.521C148.862,280.447 138.002,280.186 127.154,279.679C122.67,279.469 118.187,279.217 113.708,278.911C109.378,278.614 105.051,278.268 100.731,277.849C97.744,277.56 94.761,277.235 91.784,276.86C89.64,276.589 87.5,276.292 85.365,275.955C83.414,275.647 81.467,275.307 79.532,274.91C77.91,274.577 76.294,274.206 74.699,273.759C73.453,273.41 72.216,273.015 71.019,272.519C70.084,272.132 69.167,271.681 68.335,271.101C67.837,270.753 67.371,270.358 66.966,269.905C66.24,269.092 65.728,268.091 65.567,267.008C65.519,266.679 65.501,266.345 65.517,266.013C65.535,265.62 65.599,265.23 65.706,264.851C65.86,264.307 66.103,263.791 66.414,263.319C66.55,263.113 66.699,262.915 66.859,262.726C67.834,261.578 69.168,260.813 70.524,260.202L70.56,260.186L83.364,103.357Z" style="fill:rgb(248,93,93);"/>
        </g>
        <path d="M130.542,19.291C131.527,19.309 132.511,19.365 133.492,19.465C135.574,19.678 137.636,20.081 139.644,20.67C142.874,21.617 145.959,23.045 148.774,24.889C151.724,26.821 154.373,29.206 156.605,31.936C157.884,33.499 159.025,35.175 160.011,36.938C160.457,37.737 160.867,38.554 161.252,39.383L161.47,39.105C161.543,39.013 161.616,38.921 161.689,38.829C162.579,37.732 163.528,36.687 164.544,35.706C166.75,33.578 169.246,31.752 171.944,30.297C175.336,28.468 179.042,27.234 182.854,26.666C184.447,26.429 186.058,26.307 187.67,26.299L188.015,26.299C189.972,26.31 191.927,26.491 193.852,26.84C197.152,27.44 200.357,28.541 203.33,30.095C206.298,31.646 209.03,33.644 211.41,35.999C213.833,38.396 215.89,41.16 217.486,44.172C218.536,46.153 219.386,48.24 220.017,50.392C220.347,51.516 220.614,52.656 220.827,53.808L221.02,53.678C221.068,53.645 221.116,53.613 221.213,53.549C222.061,52.997 222.935,52.489 223.841,52.038L223.841,52.037L223.843,52.036C223.949,51.964 224.056,51.894 224.162,51.824C224.985,51.288 225.843,50.804 226.729,50.38C227.905,49.818 229.133,49.362 230.393,49.026C231.522,48.724 232.677,48.519 233.841,48.414C234.39,48.364 234.939,48.339 235.49,48.33C235.727,48.328 235.727,48.328 235.964,48.33C236.435,48.338 236.906,48.356 237.377,48.393C238.308,48.466 239.234,48.6 240.148,48.792C241.05,48.982 241.94,49.228 242.813,49.525C243.461,49.746 244.1,49.995 244.727,50.27C248.628,51.98 252.042,54.662 254.927,57.77C255.35,58.225 255.761,58.69 256.163,59.164C256.722,59.823 257.26,60.498 257.78,61.189C258.453,62.083 259.095,63.001 259.706,63.939C261.528,66.736 263.083,69.703 264.407,72.765C266.036,76.527 267.318,80.437 268.289,84.419C269.092,87.712 269.681,91.056 270.061,94.424C270.391,97.35 270.565,100.294 270.57,103.238C270.575,106.211 270.407,109.185 270.043,112.136C269.72,114.754 269.244,117.353 268.588,119.908C268.244,121.249 267.85,122.578 267.402,123.888C267.067,124.864 266.703,125.83 266.306,126.783C266.006,127.502 265.688,128.213 265.349,128.916C263.267,133.239 260.401,137.27 256.594,140.239C256.364,140.418 256.132,140.593 255.896,140.763C255.311,141.338 254.768,141.9 254.448,142.272C254.064,142.64 253.711,143.037 253.391,143.462C252.984,144.002 252.633,144.579 252.315,145.175C252.23,145.384 252.146,145.593 252.064,145.803C251.192,148.065 250.517,150.393 249.883,152.73C249.507,154.116 249.145,155.505 248.77,156.891C248.645,157.348 248.518,157.806 248.39,158.262C247.942,159.837 247.607,161.464 246.914,162.947L246.846,163.09C246.44,164.174 245.987,165.242 245.458,166.273C245.103,166.964 244.711,167.641 244.275,168.287C243.543,169.493 242.62,170.65 241.05,172.161C239.877,173.29 236.957,174.195 234.034,173.943C232.862,173.92 231.695,173.717 230.585,173.338C228.579,172.654 226.782,171.4 225.44,169.76C224.723,168.883 224.145,167.904 223.711,166.858L223.671,166.759L223.632,166.66C223.504,166.455 223.377,166.25 223.252,166.043C221.669,163.395 220.438,160.554 219.355,157.67C218.705,155.936 218.119,154.18 217.505,152.434C217.416,152.186 217.327,151.939 217.235,151.693C217.126,151.407 217.015,151.12 216.886,150.842C216.833,150.728 216.777,150.614 216.711,150.506C216.672,150.442 216.63,150.376 216.577,150.322C216.489,150.231 216.371,150.176 216.252,150.138C216.051,150.073 215.836,150.05 215.625,150.039C215.579,150.037 215.533,150.035 215.486,150.034L215.347,150.032C215.068,150.031 214.79,150.047 214.512,150.068C214.068,150.102 213.626,150.154 213.183,150.207C212.069,150.348 210.956,150.504 209.842,150.646C208.414,150.823 206.983,150.974 205.546,151.052C204.968,151.083 204.389,151.101 203.811,151.107L203.463,151.109C203.348,151.109 203.232,151.109 203.116,151.108L202.768,151.104C202.597,151.118 202.425,151.129 202.253,151.139C202.034,151.149 201.816,151.156 201.597,151.159L201.433,151.16C201.269,151.161 201.105,151.159 200.941,151.155C200.071,151.132 199.203,151.043 198.347,150.885C196.007,150.455 193.77,149.517 191.82,148.154C191.2,147.72 190.609,147.245 190.053,146.732C189.8,146.499 189.556,146.257 189.317,146.01C189.222,145.93 189.223,145.93 189.13,145.847C188.972,145.702 188.82,145.553 188.674,145.396C188.079,144.757 187.586,144.029 187.15,143.275C186.955,142.939 186.776,142.596 186.598,142.251C186.439,141.943 186.283,141.634 186.14,141.319C186.029,141.072 185.927,140.821 185.824,140.571C185.745,140.38 185.664,140.191 185.587,139.999C184.92,138.355 184.354,136.671 183.822,134.979C183.224,133.08 182.672,131.167 182.126,129.253C181.57,127.305 181.022,125.356 180.465,123.409C180.228,122.583 179.988,121.758 179.746,120.933C178.909,118.094 178.04,115.266 177.097,112.461C176.169,109.699 175.168,106.962 174.084,104.257L173.944,103.91L173.803,103.564C173.795,103.58 173.783,103.594 173.766,103.606C173.117,104.681 172.298,105.653 171.348,106.475C170.4,107.297 169.322,107.969 168.167,108.458C166.691,109.082 165.094,109.405 163.492,109.405C161.89,109.405 160.292,109.082 158.817,108.458C157.661,107.969 156.584,107.297 155.635,106.475C154.621,105.597 153.756,104.548 153.086,103.384C152.764,102.824 152.488,102.238 152.26,101.634L152.207,101.589C151.996,101.81 151.781,102.027 151.562,102.241C149.183,104.564 146.372,106.438 143.309,107.734C140.083,109.099 136.593,109.813 133.09,109.836C129.691,109.857 126.295,109.228 123.132,107.98C120.233,106.837 117.542,105.18 115.212,103.112C113.055,101.198 111.21,98.935 109.772,96.435C108.744,94.648 107.924,92.741 107.335,90.764C107.128,90.07 106.951,89.367 106.802,88.658C106.713,88.547 106.627,88.433 106.545,88.318C106.387,88.098 106.242,87.87 106.105,87.637C106.001,87.774 105.897,87.909 105.791,88.043C104.905,89.158 103.931,90.198 102.866,91.145C100.551,93.202 97.843,94.809 94.924,95.844C91.665,97.001 88.163,97.434 84.719,97.128C81.51,96.843 78.368,95.906 75.528,94.384C72.078,92.536 69.098,89.843 66.907,86.601C65.346,84.292 64.191,81.713 63.513,79.01C62.881,76.493 62.664,73.874 62.861,71.286C63.036,68.995 63.539,66.732 64.356,64.584C65.34,61.999 66.774,59.59 68.573,57.489C70.488,55.252 72.812,53.368 75.4,51.961C78.094,50.497 81.066,49.559 84.112,49.21C86.682,48.916 89.3,49.033 91.832,49.564C93.054,49.82 94.253,50.175 95.422,50.615L95.55,50.664L95.678,50.714C95.696,50.508 95.716,50.303 95.737,50.097C95.86,48.944 96.035,47.799 96.271,46.663C96.746,44.375 97.458,42.136 98.39,39.993C100.297,35.61 103.127,31.642 106.64,28.401C109.969,25.329 113.901,22.922 118.155,21.366C120.495,20.511 122.928,19.913 125.398,19.585C126.632,19.422 127.873,19.329 129.117,19.295C129.368,19.29 129.618,19.287 129.869,19.286L130.12,19.286L130.542,19.291ZM201.477,143.16C201.703,143.158 201.929,143.145 202.154,143.128L202.892,143.105C203.149,143.109 203.148,143.109 203.405,143.111L203.646,143.11C203.706,143.109 203.766,143.109 203.887,143.107C204.964,143.086 206.038,143.014 207.11,142.906C208.657,142.751 210.196,142.528 211.737,142.326C212.052,142.286 212.367,142.247 212.683,142.21C213.544,142.114 214.409,142.036 215.275,142.032L215.475,142.033C215.608,142.034 215.741,142.037 215.875,142.042C217.176,142.094 218.471,142.351 219.661,142.889C220.176,143.122 220.671,143.402 221.132,143.73C221.696,144.131 222.207,144.597 222.661,145.121C223.268,145.821 223.748,146.626 224.139,147.465C224.486,148.212 224.769,148.987 225.046,149.763C225.45,150.912 225.842,152.067 226.247,153.216C226.853,154.917 227.492,156.607 228.229,158.257C228.843,159.634 229.523,160.983 230.319,162.265L230.402,162.397C230.525,162.615 230.659,162.828 230.772,163.051C230.913,163.33 231.009,163.564 231.116,163.83C231.148,163.908 231.183,163.984 231.22,164.059C231.635,164.881 232.376,165.523 233.258,165.796C233.571,165.893 233.898,165.942 234.225,165.945L234.338,165.944C234.604,165.938 234.868,165.903 235.124,165.836C235.461,165.747 235.784,165.605 236.078,165.417C236.225,165.322 236.361,165.214 236.496,165.103C236.555,165.055 236.615,165.008 236.672,164.958C237.171,164.521 237.564,163.968 237.905,163.404C238.438,162.522 238.856,161.574 239.228,160.615C239.547,159.793 239.828,158.957 240.091,158.117C240.436,157.016 240.747,155.906 241.05,154.793C241.426,153.409 241.788,152.021 242.162,150.636C242.294,150.151 242.427,149.666 242.563,149.182C243.039,147.5 243.544,145.826 244.132,144.18C244.316,143.666 244.507,143.156 244.707,142.65L244.711,142.64C246.408,137.023 248.841,135.689 249.19,135.514C251.948,134.124 254.173,131.856 255.906,129.332C256.203,128.9 256.486,128.459 256.757,128.011C257.1,127.443 257.422,126.864 257.727,126.275C258.132,125.493 258.504,124.694 258.847,123.883C259.259,122.909 259.629,121.917 259.962,120.913C260.425,119.518 260.815,118.1 261.143,116.668C262.149,112.274 262.577,107.754 262.57,103.251C262.566,100.863 262.438,98.475 262.195,96.099C261.934,93.549 261.542,91.012 261.014,88.504C260.203,84.65 259.076,80.858 257.596,77.207C256.443,74.365 255.075,71.604 253.447,69.002C252.838,68.029 252.193,67.079 251.507,66.158C251.006,65.486 250.484,64.829 249.938,64.193C249.493,63.674 249.033,63.169 248.557,62.68C248.18,62.292 247.793,61.915 247.395,61.549C247.051,61.233 246.7,60.926 246.34,60.628C243.987,58.685 241.234,57.133 238.211,56.563C237.536,56.436 236.853,56.363 236.167,56.336C235.972,56.33 235.776,56.328 235.581,56.329C235.241,56.335 234.903,56.35 234.565,56.381C233.947,56.437 233.334,56.539 232.731,56.685C232.131,56.831 231.541,57.021 230.968,57.251C230.568,57.412 230.175,57.593 229.792,57.791C229.222,58.085 228.675,58.417 228.151,58.781C228.043,58.857 227.523,59.129 227.41,59.197C227.108,59.379 224.547,60.931 223.918,61.187C223.184,61.486 222.41,61.69 221.62,61.769C221.423,61.788 221.225,61.801 221.026,61.805L220.828,61.808C220.035,61.808 219.242,61.69 218.483,61.457C217.471,61.147 216.524,60.635 215.71,59.958C215.1,59.451 214.567,58.852 214.133,58.188C213.698,57.524 213.363,56.796 213.143,56.034C213.001,55.546 212.923,55.043 212.82,54.547C212.771,54.318 212.719,54.089 212.665,53.861C212.468,53.048 212.234,52.244 211.959,51.453C211.401,49.849 210.68,48.302 209.813,46.841C208.534,44.686 206.938,42.722 205.093,41.028C203.278,39.361 201.225,37.957 199.011,36.875C196.757,35.773 194.341,35.009 191.863,34.616C190.65,34.424 189.423,34.319 188.195,34.301L187.932,34.299C186.44,34.293 184.948,34.416 183.479,34.668C180.657,35.152 177.924,36.118 175.424,37.512C173.331,38.679 171.405,40.141 169.716,41.841C168.949,42.612 168.237,43.433 167.57,44.291L167.063,44.883C166.875,45.062 166.696,45.252 166.5,45.422C165.911,45.934 165.248,46.358 164.536,46.678C163.588,47.105 162.557,47.345 161.517,47.379C161.477,47.38 161.436,47.381 161.395,47.382L161.274,47.383C160.054,47.386 158.839,47.108 157.742,46.572C157.041,46.23 156.392,45.785 155.819,45.255C155.247,44.726 154.753,44.112 154.357,43.44C154.138,43.068 153.965,42.681 153.781,42.293C153.679,42.083 153.679,42.083 153.575,41.873C153.258,41.249 152.922,40.635 152.558,40.036C151.795,38.777 150.926,37.581 149.964,36.466C148.244,34.471 146.227,32.734 143.999,31.329C141.948,30.037 139.719,29.029 137.393,28.347C135.854,27.895 134.274,27.587 132.678,27.424C131.924,27.346 131.166,27.303 130.408,27.29L130.083,27.286C129.987,27.285 129.891,27.285 129.795,27.286C128.781,27.295 127.769,27.355 126.762,27.476C124.865,27.705 122.993,28.141 121.19,28.776C117.956,29.916 114.957,31.696 112.398,33.977C109.47,36.589 107.13,39.847 105.606,43.464C104.891,45.163 104.355,46.938 104.012,48.75C103.845,49.634 103.726,50.526 103.647,51.422L103.54,52.195C103.479,52.448 103.431,52.705 103.358,52.954C103.139,53.704 102.811,54.421 102.385,55.075C101.959,55.73 101.438,56.321 100.841,56.825C100.046,57.497 99.119,58.011 98.128,58.33C97.384,58.569 96.607,58.698 95.826,58.713C95.045,58.727 94.263,58.627 93.511,58.415C93.076,58.293 92.661,58.119 92.236,57.967C92.062,57.906 91.888,57.848 91.713,57.792C91.034,57.58 90.342,57.41 89.64,57.289C87.853,56.979 86.011,56.973 84.222,57.27C82.217,57.603 80.283,58.322 78.547,59.378C76.863,60.402 75.369,61.735 74.161,63.292C73.046,64.728 72.176,66.351 71.603,68.076C71.128,69.507 70.86,71.005 70.803,72.512C70.736,74.272 70.953,76.042 71.456,77.731C71.984,79.506 72.826,81.185 73.927,82.675C75.426,84.704 77.399,86.375 79.651,87.512C81.574,88.482 83.688,89.054 85.837,89.191C88.161,89.338 90.511,88.986 92.682,88.144C94.609,87.396 96.384,86.272 97.889,84.856C98.564,84.222 99.178,83.529 99.739,82.793L100.243,82.194C100.429,82.011 100.607,81.82 100.803,81.647C101.389,81.128 102.052,80.696 102.764,80.369C103.475,80.042 104.235,79.82 105.011,79.713C105.49,79.647 105.975,79.644 106.458,79.646C108.738,79.655 111.104,81.045 111.541,81.647C113.622,84.514 113.714,86.907 116.275,91.652C117.242,93.444 118.417,95.102 119.865,96.517C121.532,98.144 123.501,99.458 125.647,100.366C127.942,101.338 130.427,101.836 132.919,101.836C135.411,101.836 137.896,101.338 140.191,100.366C142.299,99.474 144.237,98.191 145.884,96.602C149.568,93.052 149.613,91.957 152.207,91.987C152.397,91.989 152.579,92.008 152.755,92.041C153.324,92.147 155.843,92.732 156.765,95.12C158.348,99.221 160.347,100.309 160.704,100.618C161.04,100.909 161.422,101.146 161.831,101.32C162.355,101.541 162.923,101.658 163.492,101.658C164.061,101.658 164.631,101.546 165.153,101.32C165.296,101.257 165.724,101.095 166.201,100.814C167.663,99.75 169.397,95.864 172.871,95.618C173.697,95.56 174.531,95.572 175.342,95.72L175.375,95.72C175.557,95.756 175.739,95.799 175.918,95.849C175.959,95.86 175.999,95.871 176.04,95.883C177.065,96.181 178.028,96.687 178.856,97.361C179.477,97.867 180.02,98.466 180.464,99.133C180.612,99.355 180.748,99.584 180.873,99.82C181.085,100.219 181.199,100.511 181.357,100.902C181.556,101.391 181.751,101.88 181.943,102.371C182.694,104.281 183.402,106.208 184.077,108.146C185.213,111.414 186.25,114.715 187.232,118.032C188.227,121.394 189.165,124.773 190.13,128.144C190.328,128.832 190.528,129.519 190.731,130.205C191.096,131.434 191.47,132.661 191.872,133.879C192.183,134.819 192.51,135.754 192.873,136.675C192.987,136.964 193.108,137.249 193.226,137.535C193.301,137.716 193.372,137.897 193.454,138.075C193.56,138.305 193.679,138.527 193.794,138.752C193.907,138.974 194.027,139.193 194.156,139.407C194.261,139.58 194.372,139.752 194.5,139.91L194.512,139.926L194.519,139.933L195.056,140.437C195.143,140.527 195.23,140.615 195.319,140.703C195.398,140.777 195.477,140.851 195.557,140.924C195.961,141.284 196.393,141.61 196.856,141.893C197.82,142.482 198.897,142.879 200.013,143.054C200.437,143.121 200.865,143.156 201.293,143.16L201.477,143.16Z" style="fill:rgb(248,93,93);"/>
    </g>
</svg>
