<svg width="320" height="352" viewBox="0 0 320 352" fill="none" xmlns="http://www.w3.org/2000/svg">
<path fill-rule="evenodd" clip-rule="evenodd" d="M40.9784 250.761L40.8331 250.734C37.1282 250.037 33.5858 248.597 30.4118 246.567C29.6233 246.063 28.8573 245.524 28.1163 244.952C27.514 244.488 26.9289 244.005 26.3583 243.502C21.8318 239.505 18.4043 234.399 15.7891 228.989C15.0455 227.447 14.3639 225.877 13.7379 224.284C13.3007 223.174 12.8952 222.052 12.4976 220.928C12.0274 219.592 11.573 218.25 11.1385 216.903C10.2826 214.258 9.4954 211.591 8.77687 208.904C7.10736 202.669 5.80108 196.335 4.8633 189.948C4.04703 184.381 3.50814 178.771 3.27039 173.148C3.08019 168.634 3.08151 164.11 3.31001 159.597C3.50549 155.752 3.86212 151.912 4.44063 148.104C4.88707 145.156 5.46426 142.221 6.24487 139.342C6.85508 137.086 7.58814 134.854 8.54177 132.72C9.24709 131.14 10.0779 129.601 11.1226 128.22C11.4317 127.81 11.7593 127.416 12.108 127.043C12.2902 126.847 12.4778 126.654 12.6786 126.479C12.882 126.302 13.0986 126.141 13.3258 125.995C13.5979 125.824 13.8871 125.68 14.1711 125.533C14.5171 125.355 14.8672 125.183 15.2185 125.017C16.995 124.179 18.8389 123.488 20.7131 122.909C24.1684 121.841 27.7319 121.145 31.314 120.667C36.0636 120.033 40.8555 119.793 45.6435 119.739C46.4043 119.733 47.1638 119.731 47.9246 119.733C48.4833 119.736 49.0406 119.741 49.598 119.748L50.1488 119.756C50.4883 119.761 50.8489 119.758 51.1883 119.797C51.3481 119.815 51.5066 119.84 51.6638 119.872L50.8105 130.321C50.7247 130.324 50.6283 130.325 50.5068 130.329C49.808 130.317 49.1106 130.309 48.4119 130.302C44.9739 130.284 41.5344 130.354 38.1043 130.598C35.773 130.765 33.4471 131.008 31.137 131.368C29.2192 131.667 27.3106 132.046 25.4337 132.545C23.4128 133.083 21.4303 133.762 19.5415 134.662L19.4755 134.694C19.2113 135.059 18.9815 135.448 18.7675 135.845C18.4822 136.377 18.2273 136.926 17.9922 137.484C17.3926 138.909 16.9157 140.387 16.505 141.878C15.8763 144.159 15.4034 146.481 15.0243 148.815C14.5845 151.528 14.2754 154.262 14.0628 157.001C13.7616 160.902 13.6573 164.815 13.7141 168.726C13.7801 173.262 14.0641 177.794 14.5449 182.304C15.134 187.839 16.0216 193.341 17.1971 198.781C18.5258 204.931 20.2244 211.002 22.2981 216.943C22.7947 218.367 23.3072 219.786 23.8778 221.183C24.3678 222.381 24.8948 223.564 25.4667 224.725C25.8828 225.572 26.3226 226.406 26.7889 227.225C27.1666 227.89 27.5602 228.542 27.9736 229.184C30.1754 232.602 32.9544 235.741 36.4453 237.879C36.938 238.18 37.4439 238.461 37.9603 238.719C38.6538 239.065 39.3683 239.369 40.0987 239.626C40.672 239.829 41.2544 240.002 41.8448 240.144L40.9784 250.761Z" fill="#F85D5D"/>
<path fill-rule="evenodd" clip-rule="evenodd" d="M62.6617 114.617C63.7408 114.986 64.8358 115.309 65.9426 115.587C68.2858 116.175 70.6804 116.556 73.0909 116.731L56.0101 325.951C55.9203 326.554 55.9269 326.715 55.7209 327.294C55.4884 327.944 55.1291 328.546 54.6682 329.059C54.5136 329.229 54.338 329.378 54.1742 329.538L54.1702 329.541C55.5676 329.929 56.9783 330.267 58.3955 330.575C59.9118 330.906 61.4347 331.202 62.9629 331.478C66.3574 332.091 69.7717 332.598 73.1913 333.051C77.2871 333.594 81.3949 334.055 85.5079 334.463C90.638 334.973 95.7759 335.4 100.918 335.771C112.941 336.637 124.987 337.2 137.036 337.566C150.768 337.982 164.509 338.137 178.246 338.061C190.597 337.995 202.948 337.74 215.29 337.258C226.032 336.838 236.769 336.25 247.486 335.394C251.705 335.059 255.921 334.679 260.13 334.24C264.133 333.824 268.131 333.354 272.117 332.799C275.414 332.341 278.702 331.822 281.974 331.202C284.626 330.7 287.269 330.123 289.863 329.376L289.624 329.103C289.26 328.546 289.134 328.421 288.894 327.793C288.653 327.167 288.661 326.989 288.561 326.331L279.702 217.823C280.793 217.232 281.843 216.559 282.838 215.813C283.165 215.567 283.485 215.311 283.802 215.051C284.161 214.756 284.517 214.458 284.861 214.146C285.531 213.541 286.17 212.901 286.777 212.231C287.407 211.535 288.001 210.807 288.561 210.053C288.904 209.589 289.235 209.116 289.553 208.634L298.833 322.299C299.005 322.386 299.172 322.477 299.342 322.569C299.496 322.657 299.651 322.745 299.804 322.835C300.888 323.491 301.905 324.269 302.708 325.259C303.324 326.017 303.803 326.886 304.083 327.822C304.291 328.52 304.387 329.249 304.366 329.977C304.35 330.502 304.272 331.025 304.136 331.534C304.025 331.95 303.875 332.355 303.69 332.744C303.546 333.049 303.378 333.343 303.193 333.626C302.114 335.277 300.452 336.434 298.715 337.311C298.416 337.462 298.112 337.606 297.805 337.744C297.41 337.921 297.01 338.088 296.606 338.247C296.099 338.447 295.585 338.634 295.069 338.811C294.328 339.065 293.58 339.299 292.829 339.517C291.237 339.98 289.627 340.381 288.01 340.744C286.66 341.048 285.305 341.326 283.947 341.584C280.504 342.235 277.043 342.783 273.574 343.265C269.467 343.837 265.349 344.321 261.225 344.75C256.518 345.241 251.803 345.659 247.085 346.026C240.924 346.505 234.758 346.897 228.588 347.225C221.812 347.584 215.031 347.866 208.25 348.081C193.343 348.554 178.429 348.719 163.515 348.618C149.173 348.521 134.829 348.176 120.5 347.506C114.578 347.229 108.657 346.896 102.741 346.492C97.0215 346.1 91.3063 345.643 85.6004 345.089C81.6551 344.708 77.7151 344.278 73.783 343.783C70.9512 343.425 68.1246 343.033 65.3047 342.588C62.7278 342.181 60.1561 341.732 57.6004 341.207C55.458 340.768 53.3236 340.278 51.2169 339.687C49.5711 339.226 47.9373 338.704 46.3563 338.049C45.1213 337.538 43.9101 336.942 42.8112 336.176C42.1534 335.717 41.5379 335.195 41.003 334.597C40.0441 333.523 39.3678 332.201 39.1552 330.77C39.0918 330.336 39.068 329.895 39.0891 329.456C39.1129 328.937 39.1974 328.422 39.3388 327.921C39.5422 327.203 39.8631 326.521 40.2739 325.898C40.4535 325.626 40.6503 325.364 40.8617 325.115C42.1495 323.598 43.9114 322.588 45.7025 321.781L45.75 321.76L62.6617 114.617Z" fill="#F85D5D"/>
<path fill-rule="evenodd" clip-rule="evenodd" d="M131.979 3.41481C133.28 3.43858 134.579 3.51255 135.875 3.64463C138.625 3.92596 141.349 4.45825 144.001 5.23621C148.267 6.48703 152.342 8.37315 156.06 10.8087C159.956 13.3606 163.455 16.5107 166.403 20.1165C168.092 22.181 169.599 24.3947 170.902 26.7233C171.491 27.7786 172.032 28.8577 172.541 29.9527L172.829 29.5855C172.925 29.464 173.022 29.3424 173.118 29.2209C174.294 27.772 175.547 26.3917 176.889 25.096C179.803 22.2853 183.1 19.8735 186.663 17.9517C191.143 15.5359 196.038 13.9061 201.073 13.1558C203.177 12.8428 205.305 12.6817 207.434 12.6711H207.89C210.475 12.6856 213.057 12.9247 215.6 13.3857C219.958 14.1781 224.191 15.6324 228.118 17.6849C232.038 19.7335 235.647 22.3725 238.79 25.483C241.991 28.649 244.708 32.2997 246.816 36.278C248.203 38.8946 249.325 41.6511 250.159 44.4935C250.595 45.9781 250.947 47.4839 251.229 49.0054L251.484 48.8337C251.547 48.7901 251.61 48.7479 251.738 48.6633C252.858 47.9343 254.013 47.2633 255.21 46.6676V46.6663L255.212 46.665C255.352 46.5699 255.494 46.4774 255.634 46.3849C256.721 45.677 257.854 45.0377 259.024 44.4777C260.577 43.7354 262.199 43.1331 263.864 42.6893C265.355 42.2904 266.88 42.0196 268.418 41.881C269.143 41.8149 269.868 41.7819 270.596 41.77C270.909 41.7674 270.909 41.7674 271.222 41.77C271.844 41.7806 272.466 41.8043 273.088 41.8532C274.318 41.9496 275.541 42.1266 276.748 42.3802C277.939 42.6312 279.115 42.9561 280.268 43.3484C281.124 43.6403 281.968 43.9692 282.796 44.3324C287.949 46.591 292.458 50.1334 296.268 54.2385C296.827 54.8395 297.37 55.4537 297.901 56.0797C298.639 56.9502 299.35 57.8417 300.037 58.7544C300.926 59.9352 301.774 61.1477 302.581 62.3866C304.987 66.081 307.041 69.9998 308.79 74.0442C310.941 79.0131 312.635 84.1775 313.917 89.437C314.978 93.7864 315.756 98.2032 316.258 102.652C316.694 106.516 316.923 110.405 316.93 114.293C316.937 118.22 316.715 122.148 316.234 126.046C315.807 129.504 315.179 132.937 314.312 136.311C313.858 138.083 313.337 139.838 312.746 141.568C312.303 142.857 311.822 144.133 311.298 145.392C310.902 146.342 310.482 147.281 310.034 148.209C307.284 153.919 303.499 159.243 298.47 163.165C298.166 163.401 297.86 163.633 297.548 163.857C296.776 164.617 296.058 165.359 295.636 165.85C295.129 166.336 294.662 166.861 294.24 167.422C293.702 168.135 293.238 168.897 292.818 169.685C292.706 169.961 292.595 170.237 292.487 170.514C291.335 173.502 290.444 176.577 289.606 179.663C289.11 181.494 288.631 183.329 288.136 185.159C287.971 185.763 287.803 186.368 287.634 186.97C287.043 189.05 286.6 191.199 285.685 193.158L285.595 193.347C285.059 194.779 284.46 196.189 283.762 197.551C283.293 198.464 282.775 199.358 282.199 200.211C281.232 201.804 280.013 203.332 277.939 205.328C276.39 206.819 272.533 208.015 268.673 207.682C267.125 207.651 265.583 207.383 264.117 206.883C261.468 205.979 259.094 204.323 257.322 202.157C256.374 200.998 255.611 199.705 255.038 198.324L254.985 198.193L254.933 198.062C254.764 197.791 254.597 197.521 254.432 197.247C252.341 193.75 250.715 189.997 249.284 186.188C248.426 183.898 247.652 181.578 246.841 179.272C246.723 178.945 246.606 178.619 246.484 178.294C246.34 177.916 246.194 177.537 246.023 177.17C245.953 177.019 245.879 176.868 245.792 176.726C245.741 176.641 245.685 176.554 245.615 176.483C245.499 176.363 245.343 176.29 245.186 176.24C244.92 176.154 244.636 176.123 244.358 176.109C244.297 176.106 244.236 176.104 244.174 176.102L243.991 176.1C243.622 176.098 243.255 176.12 242.888 176.147C242.301 176.192 241.717 176.261 241.132 176.331C239.661 176.517 238.191 176.723 236.719 176.911C234.833 177.144 232.943 177.344 231.045 177.447C230.282 177.488 229.517 177.512 228.754 177.52L228.294 177.522C228.142 177.522 227.989 177.522 227.836 177.521L227.376 177.516C227.15 177.534 226.923 177.549 226.696 177.562C226.406 177.575 226.119 177.584 225.829 177.588L225.613 177.59C225.396 177.591 225.179 177.588 224.963 177.583C223.814 177.553 222.667 177.435 221.537 177.226C218.446 176.658 215.491 175.42 212.916 173.619C212.097 173.046 211.316 172.419 210.582 171.741C210.248 171.433 209.925 171.114 209.61 170.787C209.484 170.682 209.486 170.682 209.363 170.572C209.154 170.381 208.953 170.184 208.76 169.976C207.974 169.132 207.323 168.171 206.747 167.175C206.49 166.731 206.253 166.278 206.018 165.822C205.808 165.416 205.602 165.008 205.413 164.591C205.267 164.265 205.132 163.934 204.996 163.603C204.892 163.351 204.785 163.102 204.683 162.848C203.802 160.677 203.054 158.452 202.352 156.217C201.562 153.709 200.833 151.183 200.112 148.654C199.377 146.082 198.653 143.507 197.918 140.936C197.605 139.845 197.288 138.755 196.968 137.665C195.863 133.915 194.715 130.18 193.469 126.475C192.244 122.827 190.921 119.212 189.49 115.639L189.305 115.181L189.118 114.724C189.108 114.745 189.092 114.764 189.07 114.779C188.212 116.199 187.131 117.483 185.876 118.569C184.624 119.655 183.2 120.542 181.674 121.188C179.725 122.012 177.616 122.439 175.5 122.439C173.384 122.439 171.273 122.012 169.325 121.188C167.798 120.542 166.375 119.655 165.122 118.569C163.783 117.409 162.64 116.024 161.755 114.486C161.33 113.747 160.965 112.973 160.664 112.175L160.594 112.115C160.315 112.407 160.031 112.694 159.742 112.977C156.6 116.045 152.887 118.52 148.842 120.232C144.581 122.035 139.971 122.978 135.344 123.008C130.855 123.036 126.369 122.205 122.191 120.557C118.362 119.047 114.808 116.858 111.731 114.127C108.882 111.599 106.445 108.61 104.545 105.308C103.188 102.948 102.104 100.429 101.326 97.8175C101.053 96.9009 100.819 95.9724 100.622 95.0359C100.505 94.8893 100.391 94.7387 100.283 94.5868C100.074 94.2962 99.8828 93.9951 99.7019 93.6873C99.5645 93.8683 99.4271 94.0466 99.2871 94.2236C98.1169 95.6963 96.8304 97.0699 95.4238 98.3208C92.3661 101.038 88.7893 103.16 84.9338 104.527C80.6293 106.055 76.0038 106.627 71.4549 106.223C67.2164 105.847 63.0664 104.609 59.3153 102.599C54.7585 100.158 50.8224 96.6011 47.9285 92.319C45.8667 89.2692 44.3412 85.8628 43.4457 82.2927C42.6109 78.9682 42.3243 75.509 42.5845 72.0907C42.8156 69.0647 43.48 66.0757 44.5591 63.2386C45.8588 59.8242 47.7528 56.6424 50.129 53.8674C52.6584 50.9127 55.7279 48.4243 59.1462 46.5659C62.7045 44.6322 66.63 43.3933 70.6532 42.9323C74.0477 42.544 77.5056 42.6985 80.8499 43.3999C82.4639 43.738 84.0476 44.2069 85.5916 44.7881L85.7607 44.8528L85.9297 44.9188C85.9535 44.6467 85.9799 44.376 86.0077 44.1039C86.1701 42.581 86.4013 41.0687 86.713 39.5682C87.3404 36.5462 88.2808 33.5889 89.5118 30.7584C92.0306 24.9692 95.7685 19.7282 100.409 15.4474C104.806 11.3899 109.999 8.21069 115.618 6.1555C118.708 5.0262 121.922 4.23635 125.184 3.80313C126.814 3.58783 128.453 3.465 130.097 3.42009C130.428 3.41349 130.758 3.40952 131.09 3.4082H131.421L131.979 3.41481ZM225.671 167.023C225.969 167.02 226.268 167.003 226.565 166.981L227.54 166.95C227.879 166.956 227.878 166.956 228.217 166.958L228.536 166.957C228.615 166.956 228.694 166.956 228.854 166.953C230.276 166.925 231.695 166.83 233.111 166.688C235.154 166.483 237.187 166.188 239.222 165.922C239.638 165.869 240.054 165.817 240.472 165.768C241.609 165.641 242.752 165.538 243.895 165.533L244.16 165.535C244.335 165.536 244.511 165.54 244.688 165.546C246.406 165.615 248.117 165.955 249.689 166.665C250.369 166.973 251.023 167.343 251.631 167.776C252.376 168.306 253.051 168.921 253.651 169.613C254.453 170.538 255.087 171.601 255.603 172.709C256.061 173.696 256.435 174.719 256.801 175.744C257.335 177.262 257.852 178.788 258.387 180.305C259.188 182.552 260.032 184.784 261.005 186.963C261.816 188.782 262.714 190.564 263.766 192.257L263.875 192.432C264.038 192.72 264.215 193.001 264.364 193.295C264.55 193.664 264.677 193.973 264.818 194.324C264.861 194.427 264.907 194.528 264.956 194.627C265.504 195.713 266.483 196.56 267.648 196.921C268.061 197.049 268.493 197.114 268.925 197.118L269.074 197.117C269.425 197.109 269.774 197.062 270.112 196.974C270.557 196.856 270.984 196.669 271.372 196.42C271.567 196.295 271.746 196.152 271.924 196.006C272.002 195.942 272.082 195.88 272.157 195.814C272.816 195.237 273.335 194.507 273.785 193.762C274.489 192.597 275.042 191.345 275.533 190.078C275.954 188.992 276.325 187.888 276.673 186.779C277.128 185.324 277.539 183.858 277.939 182.388C278.436 180.56 278.914 178.727 279.408 176.897C279.583 176.257 279.758 175.616 279.938 174.977C280.567 172.755 281.234 170.544 282.01 168.37C282.253 167.691 282.506 167.018 282.77 166.349L282.775 166.336C285.016 158.917 288.23 157.155 288.691 156.924C292.334 155.088 295.273 152.093 297.562 148.759C297.954 148.188 298.328 147.606 298.686 147.014C299.139 146.264 299.564 145.499 299.967 144.721C300.502 143.688 300.993 142.633 301.446 141.562C301.99 140.275 302.479 138.965 302.919 137.639C303.53 135.796 304.045 133.923 304.479 132.032C305.807 126.228 306.373 120.258 306.363 114.311C306.358 111.156 306.189 108.002 305.868 104.864C305.523 101.496 305.006 98.1451 304.308 94.8325C303.237 89.7421 301.749 84.7335 299.794 79.9112C298.271 76.1575 296.464 72.5107 294.314 69.0739C293.509 67.7888 292.657 66.534 291.751 65.3175C291.09 64.4299 290.4 63.5622 289.679 62.7221C289.091 62.0366 288.484 61.3696 287.855 60.7237C287.357 60.2113 286.846 59.7133 286.32 59.2299C285.866 58.8125 285.402 58.407 284.927 58.0134C281.819 55.4471 278.182 53.3972 274.19 52.6443C273.298 52.4765 272.396 52.3801 271.49 52.3445C271.232 52.3365 270.973 52.3339 270.716 52.3352C270.267 52.3431 269.82 52.363 269.374 52.4039C268.558 52.4779 267.748 52.6126 266.952 52.8054C266.159 52.9983 265.38 53.2492 264.623 53.553C264.095 53.7657 263.576 54.0047 263.07 54.2663C262.317 54.6546 261.594 55.0931 260.902 55.5739C260.76 55.6742 260.073 56.0335 259.924 56.1233C259.525 56.3637 256.142 58.4136 255.311 58.7517C254.342 59.1467 253.319 59.4161 252.276 59.5205C252.016 59.5456 251.754 59.5627 251.491 59.568L251.23 59.572C250.182 59.572 249.135 59.4161 248.133 59.1084C246.796 58.6989 245.545 58.0227 244.47 57.1285C243.664 56.4588 242.96 55.6676 242.387 54.7906C241.812 53.9136 241.37 52.952 241.079 51.9456C240.892 51.301 240.789 50.6367 240.653 49.9815C240.588 49.6791 240.519 49.3766 240.448 49.0754C240.188 48.0016 239.879 46.9397 239.516 45.8949C238.779 43.7763 237.826 41.733 236.681 39.8033C234.992 36.957 232.884 34.3629 230.447 32.1254C228.05 29.9236 225.338 28.0692 222.414 26.6401C219.437 25.1845 216.245 24.1754 212.972 23.6563C211.37 23.4027 209.75 23.264 208.128 23.2403L207.78 23.2376C205.81 23.2297 203.839 23.3922 201.899 23.725C198.171 24.3643 194.562 25.6402 191.26 27.4814C188.495 29.0228 185.951 30.9538 183.72 33.1992C182.707 34.2176 181.767 35.302 180.886 36.4352L180.216 37.2172C179.968 37.4536 179.731 37.7045 179.473 37.9291C178.695 38.6053 177.819 39.1654 176.878 39.588C175.626 40.152 174.265 40.469 172.891 40.5139C172.838 40.5152 172.784 40.5166 172.73 40.5179L172.57 40.5192C170.959 40.5232 169.354 40.156 167.905 39.448C166.979 38.9963 166.122 38.4085 165.365 37.7085C164.609 37.0098 163.957 36.1988 163.434 35.3112C163.145 34.8199 162.916 34.3087 162.673 33.7962C162.538 33.5189 162.538 33.5189 162.401 33.2415C161.982 32.4173 161.539 31.6063 161.058 30.8152C160.05 29.1522 158.902 27.5725 157.632 26.0998C155.36 23.4648 152.696 21.1705 149.753 19.3148C147.044 17.6083 144.1 16.2769 141.028 15.3761C138.995 14.7791 136.908 14.3723 134.8 14.157C133.804 14.054 132.803 13.9972 131.802 13.98L131.372 13.9747C131.246 13.9734 131.119 13.9734 130.992 13.9747C129.653 13.9866 128.316 14.0659 126.986 14.2257C124.48 14.5282 122.008 15.104 119.626 15.9428C115.355 17.4485 111.394 19.7995 108.014 22.8123C104.146 26.2623 101.056 30.5655 99.0428 35.3429C98.0984 37.587 97.3904 39.9314 96.9374 42.3247C96.7168 43.4924 96.5597 44.6705 96.4553 45.854L96.314 46.875C96.2334 47.2091 96.17 47.5486 96.0736 47.8775C95.7843 48.8681 95.3511 49.8151 94.7884 50.6789C94.2258 51.5441 93.5376 52.3247 92.7491 52.9903C91.6991 53.8779 90.4747 54.5568 89.1657 54.9782C88.183 55.2939 87.1568 55.4642 86.1252 55.484C85.0936 55.5025 84.0608 55.3705 83.0675 55.0904C82.493 54.9293 81.9448 54.6995 81.3835 54.4987C81.1537 54.4181 80.9238 54.3415 80.6927 54.2676C79.7958 53.9876 78.8818 53.763 77.9546 53.6032C75.5943 53.1938 73.1614 53.1858 70.7985 53.5781C68.1502 54.0179 65.5957 54.9676 63.3028 56.3624C61.0786 57.7149 59.1053 59.4756 57.5097 61.5321C56.037 63.4288 54.8879 65.5724 54.1311 67.8508C53.5037 69.7409 53.1497 71.7195 53.0744 73.71C52.9859 76.0346 53.2725 78.3725 53.9369 80.6033C54.6343 82.9478 55.7464 85.1654 57.2006 87.1335C59.1805 89.8134 61.7865 92.0205 64.761 93.5222C67.3009 94.8034 70.0931 95.5589 72.9316 95.7399C76.0011 95.9341 79.1051 95.4691 81.9726 94.357C84.5178 93.369 86.8622 91.8844 88.8501 90.0142C89.7416 89.1768 90.5526 88.2614 91.2936 87.2893L91.9592 86.4981C92.2049 86.2564 92.44 86.0042 92.6989 85.7757C93.4729 85.0902 94.3486 84.5196 95.289 84.0877C96.2281 83.6558 97.232 83.3625 98.2569 83.2212C98.8896 83.134 99.5302 83.1301 100.168 83.1327C103.18 83.1446 106.305 84.9805 106.882 85.7757C109.63 89.5624 109.752 92.7231 113.135 98.9904C114.412 101.357 115.964 103.547 117.876 105.416C120.078 107.565 122.679 109.301 125.513 110.5C128.545 111.784 131.827 112.442 135.118 112.442C138.41 112.442 141.692 111.784 144.723 110.5C147.508 109.322 150.067 107.627 152.243 105.528C157.109 100.84 157.168 99.3933 160.594 99.4329C160.845 99.4355 161.086 99.4606 161.318 99.5042C162.07 99.6442 165.397 100.417 166.614 103.571C168.705 108.988 171.346 110.425 171.817 110.833C172.261 111.217 172.765 111.53 173.306 111.76C173.998 112.052 174.748 112.207 175.5 112.207C176.251 112.207 177.004 112.059 177.693 111.76C177.882 111.677 178.448 111.463 179.078 111.092C181.009 109.686 183.299 104.554 187.888 104.229C188.979 104.152 190.08 104.168 191.151 104.364H191.195C191.435 104.411 191.676 104.468 191.912 104.534C191.966 104.548 192.019 104.563 192.073 104.579C193.427 104.972 194.699 105.641 195.793 106.531C196.613 107.199 197.33 107.99 197.916 108.871C198.112 109.165 198.292 109.467 198.457 109.779C198.737 110.306 198.887 110.692 199.096 111.208C199.359 111.854 199.616 112.5 199.87 113.148C200.862 115.671 201.797 118.216 202.689 120.776C204.189 125.092 205.559 129.452 206.856 133.834C208.17 138.274 209.409 142.737 210.683 147.19C210.945 148.098 211.209 149.006 211.477 149.912C211.959 151.535 212.453 153.156 212.984 154.765C213.395 156.006 213.827 157.241 214.306 158.458C214.457 158.839 214.617 159.216 214.773 159.593C214.872 159.833 214.966 160.072 215.074 160.307C215.214 160.61 215.371 160.904 215.523 161.201C215.672 161.494 215.831 161.783 216.001 162.066C216.14 162.295 216.286 162.522 216.455 162.73L216.471 162.752L216.481 162.761L217.19 163.426C217.305 163.545 217.42 163.662 217.537 163.778C217.642 163.876 217.746 163.973 217.852 164.07C218.385 164.545 218.956 164.976 219.567 165.35C220.841 166.128 222.263 166.652 223.737 166.883C224.297 166.972 224.862 167.018 225.428 167.023H225.671Z" fill="#F85D5D"/>
<path fill-rule="evenodd" clip-rule="evenodd" d="M40.9784 250.761L40.8331 250.734C37.1282 250.037 33.5858 248.597 30.4118 246.567C29.6233 246.063 28.8573 245.524 28.1163 244.952C27.514 244.488 26.9289 244.005 26.3583 243.502C21.8318 239.505 18.4043 234.399 15.7891 228.989C15.0455 227.447 14.3639 225.877 13.7379 224.284C13.3007 223.174 12.8952 222.052 12.4976 220.928C12.0274 219.592 11.573 218.25 11.1385 216.903C10.2826 214.258 9.4954 211.591 8.77687 208.904C7.10736 202.669 5.80108 196.335 4.8633 189.948C4.04703 184.381 3.50814 178.771 3.27039 173.148C3.08019 168.634 3.08151 164.11 3.31001 159.597C3.50549 155.752 3.86212 151.912 4.44063 148.104C4.88707 145.156 5.46426 142.221 6.24487 139.342C6.85508 137.086 7.58814 134.854 8.54177 132.72C9.24709 131.14 10.0779 129.601 11.1226 128.22C11.4317 127.81 11.7593 127.416 12.108 127.043C12.2902 126.847 12.4778 126.654 12.6786 126.479C12.882 126.302 13.0986 126.141 13.3258 125.995C13.5979 125.824 13.8871 125.68 14.1711 125.533C14.5171 125.355 14.8672 125.183 15.2185 125.017C16.995 124.179 18.8389 123.488 20.7131 122.909C24.1684 121.841 27.7319 121.145 31.314 120.667C36.0636 120.033 40.8555 119.793 45.6435 119.739C46.4043 119.733 47.1638 119.731 47.9246 119.733C48.4833 119.736 49.0406 119.741 49.598 119.748L50.1488 119.756C50.4883 119.761 50.8489 119.758 51.1883 119.797C51.3481 119.815 51.5066 119.84 51.6638 119.872L50.8105 130.321C50.7247 130.324 50.6283 130.325 50.5068 130.329C49.808 130.317 49.1106 130.309 48.4119 130.302C44.9739 130.284 41.5344 130.354 38.1043 130.598C35.773 130.765 33.4471 131.008 31.137 131.368C29.2192 131.667 27.3106 132.046 25.4337 132.545C23.4128 133.083 21.4303 133.762 19.5415 134.662L19.4755 134.694C19.2113 135.059 18.9815 135.448 18.7675 135.845C18.4822 136.377 18.2273 136.926 17.9922 137.484C17.3926 138.909 16.9157 140.387 16.505 141.878C15.8763 144.159 15.4034 146.481 15.0243 148.815C14.5845 151.528 14.2754 154.262 14.0628 157.001C13.7616 160.902 13.6573 164.815 13.7141 168.726C13.7801 173.262 14.0641 177.794 14.5449 182.304C15.134 187.839 16.0216 193.341 17.1971 198.781C18.5258 204.931 20.2244 211.002 22.2981 216.943C22.7947 218.367 23.3072 219.786 23.8778 221.183C24.3678 222.381 24.8948 223.564 25.4667 224.725C25.8828 225.572 26.3226 226.406 26.7889 227.225C27.1666 227.89 27.5602 228.542 27.9736 229.184C30.1754 232.602 32.9544 235.741 36.4453 237.879C36.938 238.18 37.4439 238.461 37.9603 238.719C38.6538 239.065 39.3683 239.369 40.0987 239.626C40.672 239.829 41.2544 240.002 41.8448 240.144L40.9784 250.761Z" stroke="#F85D5D" stroke-width="6"/>
<path fill-rule="evenodd" clip-rule="evenodd" d="M62.6617 114.617C63.7408 114.986 64.8358 115.309 65.9426 115.587C68.2858 116.175 70.6804 116.556 73.0909 116.731L56.0101 325.951C55.9203 326.554 55.9269 326.715 55.7209 327.294C55.4884 327.944 55.1291 328.546 54.6682 329.059C54.5136 329.229 54.338 329.378 54.1742 329.538L54.1702 329.541C55.5676 329.929 56.9783 330.267 58.3955 330.575C59.9118 330.906 61.4347 331.202 62.9629 331.478C66.3574 332.091 69.7717 332.598 73.1913 333.051C77.2871 333.594 81.3949 334.055 85.5079 334.463C90.638 334.973 95.7759 335.4 100.918 335.771C112.941 336.637 124.987 337.2 137.036 337.566C150.768 337.982 164.509 338.137 178.246 338.061C190.597 337.995 202.948 337.74 215.29 337.258C226.032 336.838 236.769 336.25 247.486 335.394C251.705 335.059 255.921 334.679 260.13 334.24C264.133 333.824 268.131 333.354 272.117 332.799C275.414 332.341 278.702 331.822 281.974 331.202C284.626 330.7 287.269 330.123 289.863 329.376L289.624 329.103C289.26 328.546 289.134 328.421 288.894 327.793C288.653 327.167 288.661 326.989 288.561 326.331L279.702 217.823C280.793 217.232 281.843 216.559 282.838 215.813C283.165 215.567 283.485 215.311 283.802 215.051C284.161 214.756 284.517 214.458 284.861 214.146C285.531 213.541 286.17 212.901 286.777 212.231C287.407 211.535 288.001 210.807 288.561 210.053C288.904 209.589 289.235 209.116 289.553 208.634L298.833 322.299C299.005 322.386 299.172 322.477 299.342 322.569C299.496 322.657 299.651 322.745 299.804 322.835C300.888 323.491 301.905 324.269 302.708 325.259C303.324 326.017 303.803 326.886 304.083 327.822C304.291 328.52 304.387 329.249 304.366 329.977C304.35 330.502 304.272 331.025 304.136 331.534C304.025 331.95 303.875 332.355 303.69 332.744C303.546 333.049 303.378 333.343 303.193 333.626C302.114 335.277 300.452 336.434 298.715 337.311C298.416 337.462 298.112 337.606 297.805 337.744C297.41 337.921 297.01 338.088 296.606 338.247C296.099 338.447 295.585 338.634 295.069 338.811C294.328 339.065 293.58 339.299 292.829 339.517C291.237 339.98 289.627 340.381 288.01 340.744C286.66 341.048 285.305 341.326 283.947 341.584C280.504 342.235 277.043 342.783 273.574 343.265C269.467 343.837 265.349 344.321 261.225 344.75C256.518 345.241 251.803 345.659 247.085 346.026C240.924 346.505 234.758 346.897 228.588 347.225C221.812 347.584 215.031 347.866 208.25 348.081C193.343 348.554 178.429 348.719 163.515 348.618C149.173 348.521 134.829 348.176 120.5 347.506C114.578 347.229 108.657 346.896 102.741 346.492C97.0215 346.1 91.3063 345.643 85.6004 345.089C81.6551 344.708 77.7151 344.278 73.783 343.783C70.9512 343.425 68.1246 343.033 65.3047 342.588C62.7278 342.181 60.1561 341.732 57.6004 341.207C55.458 340.768 53.3236 340.278 51.2169 339.687C49.5711 339.226 47.9373 338.704 46.3563 338.049C45.1213 337.538 43.9101 336.942 42.8112 336.176C42.1534 335.717 41.5379 335.195 41.003 334.597C40.0441 333.523 39.3678 332.201 39.1552 330.77C39.0918 330.336 39.068 329.895 39.0891 329.456C39.1129 328.937 39.1974 328.422 39.3388 327.921C39.5422 327.203 39.8631 326.521 40.2739 325.898C40.4535 325.626 40.6503 325.364 40.8617 325.115C42.1495 323.598 43.9114 322.588 45.7025 321.781L45.75 321.76L62.6617 114.617Z" stroke="#F85D5D" stroke-width="6"/>
<path fill-rule="evenodd" clip-rule="evenodd" d="M131.979 3.41481C133.28 3.43858 134.579 3.51255 135.875 3.64463C138.625 3.92596 141.349 4.45825 144.001 5.23621C148.267 6.48703 152.342 8.37315 156.06 10.8087C159.956 13.3606 163.455 16.5107 166.403 20.1165C168.092 22.181 169.599 24.3947 170.902 26.7233C171.491 27.7786 172.032 28.8577 172.541 29.9527L172.829 29.5855C172.925 29.464 173.022 29.3424 173.118 29.2209C174.294 27.772 175.547 26.3917 176.889 25.096C179.803 22.2853 183.1 19.8735 186.663 17.9517C191.143 15.5359 196.038 13.9061 201.073 13.1558C203.177 12.8428 205.305 12.6817 207.434 12.6711H207.89C210.475 12.6856 213.057 12.9247 215.6 13.3857C219.958 14.1781 224.191 15.6324 228.118 17.6849C232.038 19.7335 235.647 22.3725 238.79 25.483C241.991 28.649 244.708 32.2997 246.816 36.278C248.203 38.8946 249.325 41.6511 250.159 44.4935C250.595 45.9781 250.947 47.4839 251.229 49.0054L251.484 48.8337C251.547 48.7901 251.61 48.7479 251.738 48.6633C252.858 47.9343 254.013 47.2633 255.21 46.6676V46.6663L255.212 46.665C255.352 46.5699 255.494 46.4774 255.634 46.3849C256.721 45.677 257.854 45.0377 259.024 44.4777C260.577 43.7354 262.199 43.1331 263.864 42.6893C265.355 42.2904 266.88 42.0196 268.418 41.881C269.143 41.8149 269.868 41.7819 270.596 41.77C270.909 41.7674 270.909 41.7674 271.222 41.77C271.844 41.7806 272.466 41.8043 273.088 41.8532C274.318 41.9496 275.541 42.1266 276.748 42.3802C277.939 42.6312 279.115 42.9561 280.268 43.3484C281.124 43.6403 281.968 43.9692 282.796 44.3324C287.949 46.591 292.458 50.1334 296.268 54.2385C296.827 54.8395 297.37 55.4537 297.901 56.0797C298.639 56.9502 299.35 57.8417 300.037 58.7544C300.926 59.9352 301.774 61.1477 302.581 62.3866C304.987 66.081 307.041 69.9998 308.79 74.0442C310.941 79.0131 312.635 84.1775 313.917 89.437C314.978 93.7864 315.756 98.2032 316.258 102.652C316.694 106.516 316.923 110.405 316.93 114.293C316.937 118.22 316.715 122.148 316.234 126.046C315.807 129.504 315.179 132.937 314.312 136.311C313.858 138.083 313.337 139.838 312.746 141.568C312.303 142.857 311.822 144.133 311.298 145.392C310.902 146.342 310.482 147.281 310.034 148.209C307.284 153.919 303.499 159.243 298.47 163.165C298.166 163.401 297.86 163.633 297.548 163.857C296.776 164.617 296.058 165.359 295.636 165.85C295.129 166.336 294.662 166.861 294.24 167.422C293.702 168.135 293.238 168.897 292.818 169.685C292.706 169.961 292.595 170.237 292.487 170.514C291.335 173.502 290.444 176.577 289.606 179.663C289.11 181.494 288.631 183.329 288.136 185.159C287.971 185.763 287.803 186.368 287.634 186.97C287.043 189.05 286.6 191.199 285.685 193.158L285.595 193.347C285.059 194.779 284.46 196.189 283.762 197.551C283.293 198.464 282.775 199.358 282.199 200.211C281.232 201.804 280.013 203.332 277.939 205.328C276.39 206.819 272.533 208.015 268.673 207.682C267.125 207.651 265.583 207.383 264.117 206.883C261.468 205.979 259.094 204.323 257.322 202.157C256.374 200.998 255.611 199.705 255.038 198.324L254.985 198.193L254.933 198.062C254.764 197.791 254.597 197.521 254.432 197.247C252.341 193.75 250.715 189.997 249.284 186.188C248.426 183.898 247.652 181.578 246.841 179.272C246.723 178.945 246.606 178.619 246.484 178.294C246.34 177.916 246.194 177.537 246.023 177.17C245.953 177.019 245.879 176.868 245.792 176.726C245.741 176.641 245.685 176.554 245.615 176.483C245.499 176.363 245.343 176.29 245.186 176.24C244.92 176.154 244.636 176.123 244.358 176.109C244.297 176.106 244.236 176.104 244.174 176.102L243.991 176.1C243.622 176.098 243.255 176.12 242.888 176.147C242.301 176.192 241.717 176.261 241.132 176.331C239.661 176.517 238.191 176.723 236.719 176.911C234.833 177.144 232.943 177.344 231.045 177.447C230.282 177.488 229.517 177.512 228.754 177.52L228.294 177.522C228.142 177.522 227.989 177.522 227.836 177.521L227.376 177.516C227.15 177.534 226.923 177.549 226.696 177.562C226.406 177.575 226.119 177.584 225.829 177.588L225.613 177.59C225.396 177.591 225.179 177.588 224.963 177.583C223.814 177.553 222.667 177.435 221.537 177.226C218.446 176.658 215.491 175.42 212.916 173.619C212.097 173.046 211.316 172.419 210.582 171.741C210.248 171.433 209.925 171.114 209.61 170.787C209.484 170.682 209.486 170.682 209.363 170.572C209.154 170.381 208.953 170.184 208.76 169.976C207.974 169.132 207.323 168.171 206.747 167.175C206.49 166.731 206.253 166.278 206.018 165.822C205.808 165.416 205.602 165.008 205.413 164.591C205.267 164.265 205.132 163.934 204.996 163.603C204.892 163.351 204.785 163.102 204.683 162.848C203.802 160.677 203.054 158.452 202.352 156.217C201.562 153.709 200.833 151.183 200.112 148.654C199.377 146.082 198.653 143.507 197.918 140.936C197.605 139.845 197.288 138.755 196.968 137.665C195.863 133.915 194.715 130.18 193.469 126.475C192.244 122.827 190.921 119.212 189.49 115.639L189.305 115.181L189.118 114.724C189.108 114.745 189.092 114.764 189.07 114.779C188.212 116.199 187.131 117.483 185.876 118.569C184.624 119.655 183.2 120.542 181.674 121.188C179.725 122.012 177.616 122.439 175.5 122.439C173.384 122.439 171.273 122.012 169.325 121.188C167.798 120.542 166.375 119.655 165.122 118.569C163.783 117.409 162.64 116.024 161.755 114.486C161.33 113.747 160.965 112.973 160.664 112.175L160.594 112.115C160.315 112.407 160.031 112.694 159.742 112.977C156.6 116.045 152.887 118.52 148.842 120.232C144.581 122.035 139.971 122.978 135.344 123.008C130.855 123.036 126.369 122.205 122.191 120.557C118.362 119.047 114.808 116.858 111.731 114.127C108.882 111.599 106.445 108.61 104.545 105.308C103.188 102.948 102.104 100.429 101.326 97.8175C101.053 96.9009 100.819 95.9724 100.622 95.0359C100.505 94.8893 100.391 94.7387 100.283 94.5868C100.074 94.2962 99.8828 93.9951 99.7019 93.6873C99.5645 93.8683 99.4271 94.0466 99.2871 94.2236C98.1169 95.6963 96.8304 97.0699 95.4238 98.3208C92.3661 101.038 88.7893 103.16 84.9338 104.527C80.6293 106.055 76.0038 106.627 71.4549 106.223C67.2164 105.847 63.0664 104.609 59.3153 102.599C54.7585 100.158 50.8224 96.6011 47.9285 92.319C45.8667 89.2692 44.3412 85.8628 43.4457 82.2927C42.6109 78.9682 42.3243 75.509 42.5845 72.0907C42.8156 69.0647 43.48 66.0757 44.5591 63.2386C45.8588 59.8242 47.7528 56.6424 50.129 53.8674C52.6584 50.9127 55.7279 48.4243 59.1462 46.5659C62.7045 44.6322 66.63 43.3933 70.6532 42.9323C74.0477 42.544 77.5056 42.6985 80.8499 43.3999C82.4639 43.738 84.0476 44.2069 85.5916 44.7881L85.7607 44.8528L85.9297 44.9188C85.9535 44.6467 85.9799 44.376 86.0077 44.1039C86.1701 42.581 86.4013 41.0687 86.713 39.5682C87.3404 36.5462 88.2808 33.5889 89.5118 30.7584C92.0306 24.9692 95.7685 19.7282 100.409 15.4474C104.806 11.3899 109.999 8.21069 115.618 6.1555C118.708 5.0262 121.922 4.23635 125.184 3.80313C126.814 3.58783 128.453 3.465 130.097 3.42009C130.428 3.41349 130.758 3.40952 131.09 3.4082H131.421L131.979 3.41481ZM225.671 167.023C225.969 167.02 226.268 167.003 226.565 166.981L227.54 166.95C227.879 166.956 227.878 166.956 228.217 166.958L228.536 166.957C228.615 166.956 228.694 166.956 228.854 166.953C230.276 166.925 231.695 166.83 233.111 166.688C235.154 166.483 237.187 166.188 239.222 165.922C239.638 165.869 240.054 165.817 240.472 165.768C241.609 165.641 242.752 165.538 243.895 165.533L244.16 165.535C244.335 165.536 244.511 165.54 244.688 165.546C246.406 165.615 248.117 165.955 249.689 166.665C250.369 166.973 251.023 167.343 251.631 167.776C252.376 168.306 253.051 168.921 253.651 169.613C254.453 170.538 255.087 171.601 255.603 172.709C256.061 173.696 256.435 174.719 256.801 175.744C257.335 177.262 257.852 178.788 258.387 180.305C259.188 182.552 260.032 184.784 261.005 186.963C261.816 188.782 262.714 190.564 263.766 192.257L263.875 192.432C264.038 192.72 264.215 193.001 264.364 193.295C264.55 193.664 264.677 193.973 264.818 194.324C264.861 194.427 264.907 194.528 264.956 194.627C265.504 195.713 266.483 196.56 267.648 196.921C268.061 197.049 268.493 197.114 268.925 197.118L269.074 197.117C269.425 197.109 269.774 197.062 270.112 196.974C270.557 196.856 270.984 196.669 271.372 196.42C271.567 196.295 271.746 196.152 271.924 196.006C272.002 195.942 272.082 195.88 272.157 195.814C272.816 195.237 273.335 194.507 273.785 193.762C274.489 192.597 275.042 191.345 275.533 190.078C275.954 188.992 276.325 187.888 276.673 186.779C277.128 185.324 277.539 183.858 277.939 182.388C278.436 180.56 278.914 178.727 279.408 176.897C279.583 176.257 279.758 175.616 279.938 174.977C280.567 172.755 281.234 170.544 282.01 168.37C282.253 167.691 282.506 167.018 282.77 166.349L282.775 166.336C285.016 158.917 288.23 157.155 288.691 156.924C292.334 155.088 295.273 152.093 297.562 148.759C297.954 148.188 298.328 147.606 298.686 147.014C299.139 146.264 299.564 145.499 299.967 144.721C300.502 143.688 300.993 142.633 301.446 141.562C301.99 140.275 302.479 138.965 302.919 137.639C303.53 135.796 304.045 133.923 304.479 132.032C305.807 126.228 306.373 120.258 306.363 114.311C306.358 111.156 306.189 108.002 305.868 104.864C305.523 101.496 305.006 98.1451 304.308 94.8325C303.237 89.7421 301.749 84.7335 299.794 79.9112C298.271 76.1575 296.464 72.5107 294.314 69.0739C293.509 67.7888 292.657 66.534 291.751 65.3175C291.09 64.4299 290.4 63.5622 289.679 62.7221C289.091 62.0366 288.484 61.3696 287.855 60.7237C287.357 60.2113 286.846 59.7133 286.32 59.2299C285.866 58.8125 285.402 58.407 284.927 58.0134C281.819 55.4471 278.182 53.3972 274.19 52.6443C273.298 52.4765 272.396 52.3801 271.49 52.3445C271.232 52.3365 270.973 52.3339 270.716 52.3352C270.267 52.3431 269.82 52.363 269.374 52.4039C268.558 52.4779 267.748 52.6126 266.952 52.8054C266.159 52.9983 265.38 53.2492 264.623 53.553C264.095 53.7657 263.576 54.0047 263.07 54.2663C262.317 54.6546 261.594 55.0931 260.902 55.5739C260.76 55.6742 260.073 56.0335 259.924 56.1233C259.525 56.3637 256.142 58.4136 255.311 58.7517C254.342 59.1467 253.319 59.4161 252.276 59.5205C252.016 59.5456 251.754 59.5627 251.491 59.568L251.23 59.572C250.182 59.572 249.135 59.4161 248.133 59.1084C246.796 58.6989 245.545 58.0227 244.47 57.1285C243.664 56.4588 242.96 55.6676 242.387 54.7906C241.812 53.9136 241.37 52.952 241.079 51.9456C240.892 51.301 240.789 50.6367 240.653 49.9815C240.588 49.6791 240.519 49.3766 240.448 49.0754C240.188 48.0016 239.879 46.9397 239.516 45.8949C238.779 43.7763 237.826 41.733 236.681 39.8033C234.992 36.957 232.884 34.3629 230.447 32.1254C228.05 29.9236 225.338 28.0692 222.414 26.6401C219.437 25.1845 216.245 24.1754 212.972 23.6563C211.37 23.4027 209.75 23.264 208.128 23.2403L207.78 23.2376C205.81 23.2297 203.839 23.3922 201.899 23.725C198.171 24.3643 194.562 25.6402 191.26 27.4814C188.495 29.0228 185.951 30.9538 183.72 33.1992C182.707 34.2176 181.767 35.302 180.886 36.4352L180.216 37.2172C179.968 37.4536 179.731 37.7045 179.473 37.9291C178.695 38.6053 177.819 39.1654 176.878 39.588C175.626 40.152 174.265 40.469 172.891 40.5139C172.838 40.5152 172.784 40.5166 172.73 40.5179L172.57 40.5192C170.959 40.5232 169.354 40.156 167.905 39.448C166.979 38.9963 166.122 38.4085 165.365 37.7085C164.609 37.0098 163.957 36.1988 163.434 35.3112C163.145 34.8199 162.916 34.3087 162.673 33.7962C162.538 33.5189 162.538 33.5189 162.401 33.2415C161.982 32.4173 161.539 31.6063 161.058 30.8152C160.05 29.1522 158.902 27.5725 157.632 26.0998C155.36 23.4648 152.696 21.1705 149.753 19.3148C147.044 17.6083 144.1 16.2769 141.028 15.3761C138.995 14.7791 136.908 14.3723 134.8 14.157C133.804 14.054 132.803 13.9972 131.802 13.98L131.372 13.9747C131.246 13.9734 131.119 13.9734 130.992 13.9747C129.653 13.9866 128.316 14.0659 126.986 14.2257C124.48 14.5282 122.008 15.104 119.626 15.9428C115.355 17.4485 111.394 19.7995 108.014 22.8123C104.146 26.2623 101.056 30.5655 99.0428 35.3429C98.0984 37.587 97.3904 39.9314 96.9374 42.3247C96.7168 43.4924 96.5597 44.6705 96.4553 45.854L96.314 46.875C96.2334 47.2091 96.17 47.5486 96.0736 47.8775C95.7843 48.8681 95.3511 49.8151 94.7884 50.6789C94.2258 51.5441 93.5376 52.3247 92.7491 52.9903C91.6991 53.8779 90.4747 54.5568 89.1657 54.9782C88.183 55.2939 87.1568 55.4642 86.1252 55.484C85.0936 55.5025 84.0608 55.3705 83.0675 55.0904C82.493 54.9293 81.9448 54.6995 81.3835 54.4987C81.1537 54.4181 80.9238 54.3415 80.6927 54.2676C79.7958 53.9876 78.8818 53.763 77.9546 53.6032C75.5943 53.1938 73.1614 53.1858 70.7985 53.5781C68.1502 54.0179 65.5957 54.9676 63.3028 56.3624C61.0786 57.7149 59.1053 59.4756 57.5097 61.5321C56.037 63.4288 54.8879 65.5724 54.1311 67.8508C53.5037 69.7409 53.1497 71.7195 53.0744 73.71C52.9859 76.0346 53.2725 78.3725 53.9369 80.6033C54.6343 82.9478 55.7464 85.1654 57.2006 87.1335C59.1805 89.8134 61.7865 92.0205 64.761 93.5222C67.3009 94.8034 70.0931 95.5589 72.9316 95.7399C76.0011 95.9341 79.1051 95.4691 81.9726 94.357C84.5178 93.369 86.8622 91.8844 88.8501 90.0142C89.7416 89.1768 90.5526 88.2614 91.2936 87.2893L91.9592 86.4981C92.2049 86.2564 92.44 86.0042 92.6989 85.7757C93.4729 85.0902 94.3486 84.5196 95.289 84.0877C96.2281 83.6558 97.232 83.3625 98.2569 83.2212C98.8896 83.134 99.5302 83.1301 100.168 83.1327C103.18 83.1446 106.305 84.9805 106.882 85.7757C109.63 89.5624 109.752 92.7231 113.135 98.9904C114.412 101.357 115.964 103.547 117.876 105.416C120.078 107.565 122.679 109.301 125.513 110.5C128.545 111.784 131.827 112.442 135.118 112.442C138.41 112.442 141.692 111.784 144.723 110.5C147.508 109.322 150.067 107.627 152.243 105.528C157.109 100.84 157.168 99.3933 160.594 99.4329C160.845 99.4355 161.086 99.4606 161.318 99.5042C162.07 99.6442 165.397 100.417 166.614 103.571C168.705 108.988 171.346 110.425 171.817 110.833C172.261 111.217 172.765 111.53 173.306 111.76C173.998 112.052 174.748 112.207 175.5 112.207C176.251 112.207 177.004 112.059 177.693 111.76C177.882 111.677 178.448 111.463 179.078 111.092C181.009 109.686 183.299 104.554 187.888 104.229C188.979 104.152 190.08 104.168 191.151 104.364H191.195C191.435 104.411 191.676 104.468 191.912 104.534C191.966 104.548 192.019 104.563 192.073 104.579C193.427 104.972 194.699 105.641 195.793 106.531C196.613 107.199 197.33 107.99 197.916 108.871C198.112 109.165 198.292 109.467 198.457 109.779C198.737 110.306 198.887 110.692 199.096 111.208C199.359 111.854 199.616 112.5 199.87 113.148C200.862 115.671 201.797 118.216 202.689 120.776C204.189 125.092 205.559 129.452 206.856 133.834C208.17 138.274 209.409 142.737 210.683 147.19C210.945 148.098 211.209 149.006 211.477 149.912C211.959 151.535 212.453 153.156 212.984 154.765C213.395 156.006 213.827 157.241 214.306 158.458C214.457 158.839 214.617 159.216 214.773 159.593C214.872 159.833 214.966 160.072 215.074 160.307C215.214 160.61 215.371 160.904 215.523 161.201C215.672 161.494 215.831 161.783 216.001 162.066C216.14 162.295 216.286 162.522 216.455 162.73L216.471 162.752L216.481 162.761L217.19 163.426C217.305 163.545 217.42 163.662 217.537 163.778C217.642 163.876 217.746 163.973 217.852 164.07C218.385 164.545 218.956 164.976 219.567 165.35C220.841 166.128 222.263 166.652 223.737 166.883C224.297 166.972 224.862 167.018 225.428 167.023H225.671Z" stroke="#F85D5D" stroke-width="6"/>
</svg>
